<svg width="489" height="174" viewBox="0 0 489 174" fill="none" xmlns="http://www.w3.org/2000/svg">
<path fill-rule="evenodd" clip-rule="evenodd" d="M98.1312 76.6405L129.75 129V147.256C131.498 147.874 132.75 149.54 132.75 151.5C132.75 153.985 130.735 156 128.25 156C125.765 156 123.75 153.985 123.75 151.5C123.75 149.54 125.002 147.874 126.75 147.256V129H108.75V165.256C110.498 165.874 111.75 167.541 111.75 169.5C111.75 171.985 109.735 174 107.25 174C104.765 174 102.75 171.985 102.75 169.5C102.75 167.541 104.002 165.874 105.75 165.256V129H87.75V147.256C89.4978 147.874 90.75 149.54 90.75 151.5C90.75 153.985 88.7353 156 86.25 156C83.7647 156 81.75 153.985 81.75 151.5C81.75 149.54 83.0022 147.874 84.75 147.256V129L53.6006 77.798C53.1312 77.0974 52.3489 76.6709 51.5039 76.6709H45.75V129L24.75 129V165.256C26.4978 165.874 27.75 167.541 27.75 169.5C27.75 171.985 25.7353 174 23.25 174C20.7647 174 18.75 171.985 18.75 169.5C18.75 167.541 20.0022 165.874 21.75 165.256V129L3.75 129L3.75009 49.865C3.75009 48.6161 4.75148 47.6109 6.00322 47.6109H78.9796C80.3878 47.6109 81.5144 46.4838 81.5144 45.0826V34.4821C81.5144 33.0809 80.3878 31.9538 78.9796 31.9538H6.28486C4.87666 31.9538 3.75009 30.8268 3.75009 29.4255V2.52828C3.75009 1.12707 4.87666 0 6.28486 0H81.4831H99.5395C111.775 0 121.727 9.93037 121.727 22.2062V29.1819V47.5804V53.9773C121.727 66.4969 111.587 76.6405 99.0701 76.6405H98.1312ZM42.7498 129H45.7498V147.256C47.4976 147.874 48.7498 149.541 48.7498 151.5C48.7498 153.985 46.7351 156 44.2498 156C41.7646 156 39.7498 153.985 39.7498 151.5C39.7498 149.541 41.0021 147.874 42.7498 147.256V129ZM6.75 129H3.75V147.256C2.00221 147.874 0.75 149.541 0.75 151.5C0.75 153.985 2.76472 156 5.25 156C7.73528 156 9.75 153.985 9.75 151.5C9.75 149.541 8.49779 147.874 6.75 147.256V129ZM349.148 61.179C348.036 58.478 347.48 55.555 347.48 52.41C347.48 49.302 348.036 46.416 349.148 43.752C350.296 41.088 351.889 38.757 353.927 36.759C356.002 34.761 358.392 33.207 361.097 32.097C363.839 30.987 366.784 30.432 369.934 30.432C373.157 30.432 376.121 30.987 378.826 32.097C381.568 33.17 383.958 34.7055 385.996 36.7035C388.034 38.6645 389.608 40.977 390.72 43.641C391.832 46.305 392.387 49.228 392.387 52.41C392.387 55.518 391.813 58.404 390.664 61.068C389.553 63.732 387.96 66.063 385.885 68.061C383.847 70.059 381.476 71.613 378.771 72.723C376.066 73.833 373.12 74.388 369.934 74.388C366.71 74.388 363.728 73.8515 360.986 72.7785C358.244 71.6685 355.854 70.133 353.816 68.172C351.815 66.174 350.259 63.843 349.148 61.179ZM383.106 52.41C383.106 49.672 382.531 47.2485 381.383 45.1395C380.271 43.0305 378.715 41.384 376.714 40.2C374.751 38.979 372.49 38.3685 369.934 38.3685C367.377 38.3685 365.099 38.979 363.098 40.2C361.134 41.384 359.578 43.0305 358.429 45.1395C357.318 47.2485 356.762 49.672 356.762 52.41C356.762 55.111 357.318 57.5345 358.429 59.6805C359.578 61.7895 361.134 63.4545 363.098 64.6755C365.099 65.8595 367.377 66.4515 369.934 66.4515C372.49 66.4515 374.751 65.8595 376.714 64.6755C378.715 63.4545 380.271 61.7895 381.383 59.6805C382.531 57.5715 383.106 55.148 383.106 52.41ZM173.25 38.646H186.755V73.5H195.759V38.646H209.209V31.32H173.25V38.646ZM224.482 31.32H215.534V73.5H224.482V55.3515H244.156V73.5H253.104V31.32H244.156V48.1365H224.482V31.32ZM262.415 31.32H290.537V38.2575H270.751V48.5805H288.314V55.518H270.751V66.5625H291.371V73.5H262.415V31.32ZM324.919 31.32H310.802V73.5H319.306V58.737H325.642H326.253L334.923 73.5H344.872L333.923 56.517C335.886 55.333 337.498 53.779 338.758 51.855C340.055 49.894 340.703 47.637 340.703 45.084C340.703 42.235 340.055 39.793 338.758 37.758C337.498 35.686 335.683 34.095 333.311 32.985C330.977 31.875 328.18 31.32 324.919 31.32ZM331.977 45.0285C331.977 49.7275 329.161 52.077 323.53 52.077H319.306V38.0355H323.752C329.236 38.0355 331.977 40.3665 331.977 45.0285ZM397.455 52.41C397.455 55.555 398.011 58.478 399.122 61.179C400.234 63.843 401.79 66.174 403.791 68.172C405.829 70.133 408.219 71.6685 410.96 72.7785C413.702 73.8515 416.685 74.388 419.908 74.388C423.095 74.388 426.041 73.833 428.745 72.723C431.45 71.613 433.822 70.059 435.859 68.061C437.934 66.063 439.528 63.732 440.639 61.068C441.788 58.404 442.362 55.518 442.362 52.41C442.362 49.228 441.806 46.305 440.695 43.641C439.583 40.977 438.008 38.6645 435.971 36.7035C433.933 34.7055 431.543 33.17 428.801 32.097C426.096 30.987 423.132 30.432 419.908 30.432C416.759 30.432 413.813 30.987 411.072 32.097C408.367 33.207 405.977 34.761 403.902 36.759C401.864 38.757 400.271 41.088 399.122 43.752C398.011 46.416 397.455 49.302 397.455 52.41ZM431.358 45.1395C432.506 47.2485 433.08 49.672 433.08 52.41C433.08 55.148 432.506 57.5715 431.358 59.6805C430.246 61.7895 428.69 63.4545 426.689 64.6755C424.725 65.8595 422.465 66.4515 419.908 66.4515C417.352 66.4515 415.073 65.8595 413.072 64.6755C411.109 63.4545 409.552 61.7895 408.404 59.6805C407.292 57.5345 406.736 55.111 406.736 52.41C406.736 49.672 407.292 47.2485 408.404 45.1395C409.552 43.0305 411.109 41.384 413.072 40.2C415.073 38.979 417.352 38.3685 419.908 38.3685C422.465 38.3685 424.725 38.979 426.689 40.2C428.69 41.384 430.246 43.0305 431.358 45.1395ZM458.096 38.646H444.59V31.32H480.549V38.646H467.099V73.5H458.096V38.646ZM184.088 86.82H176.251V129H184.421V99.9735L205.874 129H213.711V86.82H205.596V115.957L184.088 86.82ZM223.024 86.82H251.146V93.7575H231.36V104.08H248.923V111.018H231.36V122.062H251.98V129H223.024V86.82ZM256.32 94.146H269.825V129H278.829V94.146H292.279V86.82H256.32V94.146ZM296.346 86.82H305.739L313.575 118.288L322.524 87.375H330.471L339.475 117.9L347.2 86.82H356.482L343.866 129H335.362L326.303 98.697L317.522 129H308.962L296.346 86.82ZM357.914 107.91C357.914 111.055 358.47 113.978 359.581 116.679C360.693 119.343 362.249 121.674 364.25 123.672C366.288 125.633 368.678 127.168 371.42 128.278C374.161 129.351 377.144 129.888 380.368 129.888C383.554 129.888 386.5 129.333 389.205 128.223C391.909 127.113 394.281 125.559 396.319 123.561C398.393 121.563 399.987 119.232 401.098 116.568C402.247 113.904 402.821 111.018 402.821 107.91C402.821 104.728 402.265 101.805 401.154 99.141C400.042 96.477 398.468 94.1645 396.43 92.2035C394.392 90.2055 392.002 88.67 389.26 87.597C386.555 86.487 383.591 85.932 380.368 85.932C377.218 85.932 374.273 86.487 371.531 87.597C368.826 88.707 366.436 90.261 364.361 92.259C362.323 94.257 360.73 96.588 359.581 99.252C358.47 101.916 357.914 104.802 357.914 107.91ZM391.817 100.639C392.965 102.748 393.54 105.172 393.54 107.91C393.54 110.648 392.965 113.071 391.817 115.18C390.705 117.289 389.149 118.954 387.148 120.175C385.184 121.359 382.924 121.951 380.368 121.951C377.811 121.951 375.532 121.359 373.532 120.175C371.568 118.954 370.012 117.289 368.863 115.18C367.751 113.034 367.196 110.611 367.196 107.91C367.196 105.172 367.751 102.748 368.863 100.639C370.012 98.5305 371.568 96.884 373.532 95.7C375.532 94.479 377.811 93.8685 380.368 93.8685C382.924 93.8685 385.184 94.479 387.148 95.7C389.149 96.884 390.705 98.5305 391.817 100.639ZM409.896 86.82H424.013C427.274 86.82 430.071 87.375 432.405 88.485C434.777 89.595 436.592 91.186 437.852 93.258C439.149 95.293 439.797 97.735 439.797 100.584C439.797 103.137 439.149 105.394 437.852 107.355C436.592 109.279 434.98 110.833 433.017 112.017L443.965 129H434.017L425.347 114.237H424.735H418.4V129H409.896V86.82ZM422.624 107.577C428.255 107.577 431.071 105.227 431.071 100.528C431.071 95.8665 428.33 93.5355 422.846 93.5355H418.4V107.577H422.624ZM458.775 86.82H449.938V129H458.775V109.963L476.394 129H488.25L467.056 106.966L486.398 86.82H475.449L458.775 104.857V86.82Z" fill="white"/>
</svg>
